/* XPM */
static char * wall_xpm[] = {
"66 64 449 2",
"  	c #333333",
". 	c #303030",
"+ 	c #313131",
"@ 	c #2D2D2D",
"# 	c #323232",
"$ 	c #2F2F2F",
"% 	c #2C2C2C",
"& 	c #656565",
"* 	c #626262",
"= 	c #616161",
"- 	c #606060",
"; 	c #515151",
"> 	c #494949",
", 	c #676767",
"' 	c #686868",
") 	c #696969",
"! 	c #61615F",
"~ 	c #616160",
"{ 	c #636363",
"] 	c #575757",
"^ 	c #393939",
"/ 	c #686867",
"( 	c #696967",
"_ 	c #626260",
": 	c #373737",
"< 	c #8F8F8E",
"[ 	c #8A8A88",
"} 	c #898988",
"| 	c #898987",
"1 	c #878786",
"2 	c #878785",
"3 	c #888886",
"4 	c #6D6D6C",
"5 	c #333433",
"6 	c #949392",
"7 	c #949492",
"8 	c #959594",
"9 	c #888887",
"0 	c #797977",
"a 	c #333434",
"b 	c #343534",
"c 	c #444443",
"d 	c #979695",
"e 	c #969694",
"f 	c #8C8C8B",
"g 	c #363636",
"h 	c #8F8F8D",
"i 	c #6D6D6B",
"j 	c #333534",
"k 	c #626160",
"l 	c #959492",
"m 	c #959593",
"n 	c #787877",
"o 	c #343434",
"p 	c #444442",
"q 	c #989795",
"r 	c #979694",
"s 	c #8B8B89",
"t 	c #8D8D8B",
"u 	c #363635",
"v 	c #848482",
"w 	c #838381",
"x 	c #828280",
"y 	c #6A6A68",
"z 	c #343433",
"A 	c #5F5F5D",
"B 	c #90908E",
"C 	c #747472",
"D 	c #353535",
"E 	c #343635",
"F 	c #434342",
"G 	c #939391",
"H 	c #91908E",
"I 	c #92918F",
"J 	c #868684",
"K 	c #858583",
"L 	c #7A7B79",
"M 	c #767775",
"N 	c #767875",
"O 	c #757774",
"P 	c #767774",
"Q 	c #777775",
"R 	c #585856",
"S 	c #777875",
"T 	c #777876",
"U 	c #777976",
"V 	c #787976",
"W 	c #787876",
"X 	c #6A6A69",
"Y 	c #353636",
"Z 	c #424241",
"` 	c #898886",
" .	c #797A78",
"..	c #787977",
"+.	c #7B7B79",
"@.	c #353736",
"#.	c #8A8987",
"$.	c #888785",
"%.	c #797B79",
"&.	c #747673",
"*.	c #767674",
"=.	c #353534",
"-.	c #878684",
";.	c #797A77",
">.	c #7A7A79",
",.	c #767876",
"'.	c #777877",
").	c #777776",
"!.	c #696968",
"~.	c #767776",
"{.	c #60605F",
"].	c #595957",
"^.	c #757673",
"/.	c #767877",
"(.	c #777777",
"_.	c #797A7A",
":.	c #787A78",
"<.	c #5A5A58",
"[.	c #777977",
"}.	c #767777",
"|.	c #6A6A6A",
"1.	c #7A7B7A",
"2.	c #5D5F5D",
"3.	c #595B58",
"4.	c #595B59",
"5.	c #5A5C59",
"6.	c #5B5B59",
"7.	c #4D4D4B",
"8.	c #373736",
"9.	c #4E4E4D",
"0.	c #71716F",
"a.	c #6F6F6D",
"b.	c #6E6F6D",
"c.	c #5C5D5B",
"d.	c #5B5D5B",
"e.	c #5B5D5A",
"f.	c #5A5C5A",
"g.	c #5B5C5A",
"h.	c #5A5C5B",
"i.	c #5B5D5C",
"j.	c #5B5C5B",
"k.	c #525353",
"l.	c #353635",
"m.	c #3E3E3D",
"n.	c #6F6F6E",
"o.	c #6F6E6C",
"p.	c #5E5F5D",
"q.	c #5C5E5B",
"r.	c #5E5F5E",
"s.	c #585A59",
"t.	c #535554",
"u.	c #545655",
"v.	c #555756",
"w.	c #4A4A4A",
"x.	c #4D4D4D",
"y.	c #6C6C6A",
"z.	c #6A6C69",
"A.	c #555755",
"B.	c #565857",
"C.	c #4D4F4E",
"D.	c #3D3D3D",
"E.	c #6C6C6C",
"F.	c #6B6B6A",
"G.	c #6C6D6B",
"H.	c #565856",
"I.	c #575858",
"J.	c #525453",
"K.	c #4B4B4B",
"L.	c #6B6B69",
"M.	c #696B68",
"N.	c #4D4E4E",
"O.	c #6D6D6D",
"P.	c #575956",
"Q.	c #474848",
"R.	c #464847",
"S.	c #464747",
"T.	c #474948",
"U.	c #484A49",
"V.	c #484949",
"W.	c #404040",
"X.	c #414141",
"Y.	c #575756",
"Z.	c #565655",
"`.	c #565855",
" +	c #494B48",
".+	c #484948",
"++	c #424443",
"@+	c #5A5A5A",
"#+	c #585857",
"$+	c #4A4C49",
"%+	c #494B49",
"&+	c #494B4A",
"*+	c #313130",
"=+	c #555554",
"-+	c #555553",
";+	c #333332",
">+	c #5C5C5A",
",+	c #565654",
"'+	c #575755",
")+	c #565656",
"!+	c #3F3F3F",
"~+	c #4F4F4F",
"{+	c #5C5B5A",
"]+	c #5B5A59",
"^+	c #464646",
"/+	c #454546",
"(+	c #5B5B5B",
"_+	c #5A5A59",
":+	c #323230",
"<+	c #8A8989",
"[+	c #939290",
"}+	c #949391",
"|+	c #8E8D8B",
"1+	c #545454",
"2+	c #787775",
"3+	c #878685",
"4+	c #666665",
"5+	c #686766",
"6+	c #929290",
"7+	c #383838",
"8+	c #8D8D8C",
"9+	c #8D8C8A",
"0+	c #535353",
"a+	c #343535",
"b+	c #777674",
"c+	c #868583",
"d+	c #646463",
"e+	c #676765",
"f+	c #8C8C8A",
"g+	c #8A8A89",
"h+	c #353533",
"i+	c #908F8D",
"j+	c #656564",
"k+	c #666564",
"l+	c #91918F",
"m+	c #30302F",
"n+	c #7D7D7B",
"o+	c #838280",
"p+	c #757573",
"q+	c #747572",
"r+	c #747573",
"s+	c #4B4B4A",
"t+	c #80807E",
"u+	c #5D5D5C",
"v+	c #858482",
"w+	c #2E2E2E",
"x+	c #30302E",
"y+	c #7E7E7C",
"z+	c #7C7C7A",
"A+	c #4B4B49",
"B+	c #81817F",
"C+	c #5B5B5A",
"D+	c #5D5D5B",
"E+	c #7B7B7A",
"F+	c #737572",
"G+	c #4C4C4A",
"H+	c #5E5E5C",
"I+	c #737472",
"J+	c #6C6B69",
"K+	c #757674",
"L+	c #7E7E7D",
"M+	c #6D6C6A",
"N+	c #5C5C5B",
"O+	c #7A7A78",
"P+	c #7D7D7C",
"Q+	c #727471",
"R+	c #4A4A48",
"S+	c #2B2B2B",
"T+	c #686866",
"U+	c #666765",
"V+	c #737372",
"W+	c #666866",
"X+	c #666865",
"Y+	c #656764",
"Z+	c #676766",
"`+	c #676866",
" @	c #454544",
".@	c #656563",
"+@	c #7B7A78",
"@@	c #676966",
"#@	c #535352",
"$@	c #6C6C6B",
"%@	c #545653",
"&@	c #535552",
"*@	c #535553",
"=@	c #555555",
"-@	c #3E3E3E",
";@	c #545554",
">@	c #4E4E4C",
",@	c #696A67",
"'@	c #565757",
")@	c #555655",
"!@	c #626261",
"~@	c #666664",
"{@	c #545555",
"]@	c #595959",
"^@	c #525451",
"/@	c #505151",
"(@	c #313232",
"_@	c #4F5050",
":@	c #4F5150",
"<@	c #4E504D",
"[@	c #4D4F4C",
"}@	c #4E504E",
"|@	c #4F504F",
"1@	c #4E504F",
"2@	c #505050",
"3@	c #3C3C3C",
"4@	c #525252",
"5@	c #636362",
"6@	c #4F504E",
"7@	c #4F514F",
"8@	c #444544",
"9@	c #484846",
"0@	c #626361",
"a@	c #515252",
"b@	c #353434",
"c@	c #323233",
"d@	c #2B2B2C",
"e@	c #383837",
"f@	c #61605E",
"g@	c #858584",
"h@	c #2B2B2D",
"i@	c #757574",
"j@	c #454443",
"k@	c #969593",
"l@	c #363634",
"m@	c #323433",
"n@	c #41403F",
"o@	c #312F30",
"p@	c #737371",
"q@	c #5F5F5F",
"r@	c #727270",
"s@	c #40403F",
"t@	c #737471",
"u@	c #40403E",
"v@	c #848381",
"w@	c #717370",
"x@	c #303131",
"y@	c #727371",
"z@	c #727370",
"A@	c #737473",
"B@	c #5E5F5F",
"C@	c #303130",
"D@	c #2C2D2C",
"E@	c #727473",
"F@	c #737574",
"G@	c #5E605F",
"H@	c #575655",
"I@	c #333432",
"J@	c #575654",
"K@	c #656663",
"L@	c #333331",
"M@	c #757775",
"N@	c #6C6E6C",
"O@	c #696B69",
"P@	c #696B6A",
"Q@	c #6A6C6B",
"R@	c #585958",
"S@	c #525250",
"T@	c #7A7978",
"U@	c #696A68",
"V@	c #3F3F3E",
"W@	c #6A6B69",
"X@	c #686A68",
"Y@	c #6B6D6B",
"Z@	c #515352",
"`@	c #474747",
" #	c #484848",
".#	c #666666",
"+#	c #505251",
"@#	c #4B4C4B",
"##	c #3C3C3B",
"$#	c #646462",
"%#	c #555754",
"&#	c #4B4D4C",
"*#	c #3B3B3A",
"=#	c #525452",
"-#	c #535453",
";#	c #515251",
">#	c #525352",
",#	c #4C4D4C",
"'#	c #565755",
")#	c #2A2A2A",
"!#	c #3B3B3B",
"~#	c #3A3A3A",
"{#	c #323231",
"]#	c #7A7977",
"^#	c #757472",
"/#	c #70706E",
"(#	c #70706F",
"_#	c #646361",
":#	c #797876",
"<#	c #71706E",
"[#	c #8B8B87",
"}#	c #797875",
"|#	c #444342",
"1#	c #919190",
"2#	c #8B8B88",
"3#	c #323431",
"4#	c #797976",
"5#	c #969592",
"6#	c #898A85",
"7#	c #2A292A",
"8#	c #373837",
"9#	c #888987",
"0#	c #2F2F2D",
"a#	c #7F7F7D",
"b#	c #50504F",
"c#	c #343432",
"d#	c #747571",
"e#	c #8F8F8C",
"f#	c #8B8A88",
"g#	c #2B292A",
"h#	c #7C7D7B",
"i#	c #6D6D6A",
"j#	c #868683",
"k#	c #2B2A2B",
"l#	c #7B7C7A",
"m#	c #2E2E2D",
"n#	c #4D4D4C",
"o#	c #6D6D69",
"p#	c #787A77",
"q#	c #2F302F",
"r#	c #2E2E2C",
"s#	c #797877",
"t#	c #6C6D6A",
"u#	c #7C7C7B",
"v#	c #747675",
"w#	c #3E3E3C",
"x#	c #454543",
"y#	c #787978",
"z#	c #757676",
"A#	c #2F3030",
"B#	c #848483",
"C#	c #838382",
"D#	c #757675",
"E#	c #797978",
"F#	c #868783",
"G#	c #838480",
"H#	c #585858",
"I#	c #2D2D2E",
"J#	c #292929",
"K#	c #303031",
"L#	c #2E2E2F",
"M#	c #242424",
"N#	c #2A2A29",
"O#	c #2B2B2A",
"P#	c #2A2A2B",
"  . . . + + . . . . + + + + + + + + + + . + + + + + + + + + + + + + . + + + . + + + . . + + . + + + + + + . . + + + + + + + + . + @ ",
"# $ . . + + . . . . + + + . + + + + + + + + + + # + + + + + + + + + + + + + . + + + + + + + + + . + # + + . . + + . + + + + + . . % ",
"# $   & * * * = * * * * = = - - - = ;   # > , ' ) = ! ! ! ! ~ ~ = - = * { * = * * * = ] # # ^ ) / ( _ ~ = = = = = - - - = = { # . % ",
"# $ : < [ [ } | | | | | | 1 2 1 3 3 4 5   ! 6 7 8 3 | | 3 3 | | | 9 | | } | | | | | 3 0 a b c d 7 e [ | | 9 | 9 | 9 | | | 9 f g . @ ",
"# $ : h [ [ [ | | | | | | 3 3 3 3 3 i j   k l m m | | | 3 3 | | | | | | | [ | | | | 3 n o b p q l r s | | | | | | | | | | | t u + @ ",
"  . : | v v v w w w w w w x w w w w y b z A B B B w v w v w w v v v v v v v v w v v v C D E F G H I J K K v v v v v v v v v 3 D + @ ",
"# . D L M N M O N M M M P P M N Q Q _ b   R K K J M S T S U U U T T V V V V T U U V W X D Y Z ` 2 2  .V ..U U U U T U U T W +.o . @ ",
"# . D L N N N O O N N N O N O O M Q _ o   R K J J M N N N N U U U U U U U U U U U U W X D @.F #.$.2  .U U U N U U U U U U Q +.  . % ",
"+ $ D %.O O O &.O O O O O O O O Q *.! =.o R K J J P N N N N N U N U U U U U U U U U W X D @.Z ` -.2 ;.N N N N N N N U U N Q >.o . % ",
"# $ o  .&.O O &.&.&.&.&.&.O O O *.*.! =.o R v K J P N N N N N N N N N U U U ,.,.,.'.).!.D Y Z ` -.J ;.N N N N N N N N U N ~.L o + @ ",
"+ $ D ..&.O &.&.&.&.&.&.&.&.O O *.*.{.u =.].K K K ^.O O N O N N N N N N U U ,./././.(.) g g Z | -.J T O N N N N N N N N O /._.o + % ",
"+ $ g :.&.O &.&.&.&.&.O O O O O *.*.{.g u <.J K K P N N N N N U U U N N N U [././.}.(.|.g g F | -.J ;.N U N N N U U N N N /.1.D + % ",
"# .   2.3.3.3.4.4.4.5.5.5.4.4.4.6.6.7.8.8.9.0.a.b.c.c.d.e.f.e.e.e.e.e.e.g.f.h.i.i.h.j.k.l.g m.n.o.a.p.d.q.q.d.d.e.d.d.d.e.i.r.# + % ",
"# . # s.t.t.t.u.u.u.u.v.v.v.v.u.v.u.w.: g x.4 y.z.A.v.B.B.v.v.B.v.v.v.v.v.v.v.v.v.v.v.C.@.g D.E.F.G.3.H.B.B.v.v.B.B.v.v.v.v.B.# + @ ",
"+ . # I.t.t.t.J.t.t.u.v.v.u.u.u.u.v.w.g g K.F.L.M.A.v.v.v.v.u.u.u.u.v.v.v.v.v.u.v.u.u.N.@.g D.O.L.y.P.v.v.v.u.u.u.v.v.u.u.v.B.+ + @ ",
"# . + Q.R.R.R.R.S.R.T.T.U.T.T.T.T.V.W.D D X.Y.Z.`. +U.U.U.T.T.R.T.T..+U.U.T.T.T.T.T.T.++E D ^ @+#+R $+%+U.U..+T.V.U.U.U.T.T.&+. . % ",
"# . .                                     o D D D o D o o o o       o b j j o o o o o o   o o D D o D D D D D D D D D D o o o . . @ ",
"+ . .     o o         o o o o o           o =.D D o =.=.o o o       o o o o o o o o o o   o z D D D D D D o o D D D D D o =.o *+. % ",
"+ .   #+=+-+;+  # #+>+>+#+,+,+,+,+,+,+'+'+'+'+'+'+,+,+,+,+)+)+!+o o ~+{+>+]+Z.)+)+)+,+=+=+,+,+'+Y.)+] )+)+^+o o /+(+_+<.'+Z.Y.:+. @ ",
"# $ ^ h 3 2 *+  + <+[+}+|+2 3 3 3 3 3 3 3 3 3 3 3 3 3 3 3 3 9 1+E =.2+[+}+H 3+3 9 9 3 3 2 3 3 | | | 3 3 2 4+D o 5+}+G 6+3 3 t u . @ ",
"+ $ 7+8+3 J .   + } I [+9+J 2 2 2 3 3 3 2 3 3 3 3 3 2 2 2 2 1 0+a+=.b+I }+H c+2 3 2 2 2 2 2 3 3 3 3 2 2 2 d+D o e+}+[+I 2 3 f+D + % ",
". . ^ t 3 J *+  . g+H [+f+J J J J J 2 J J 2 2 2 2 2 J 2 J J 2 ; E h+b+I I i+K J 2 J J J J J J J 2 2 J J J j+o D k+[+I l+J J [ o . @ ",
"$ . D +.*.C *+  m+n+o+x +.C C C C C p+q+q+r+q+q+q+r+p+p+p+p+*.s+D =.y x x t+p+p+p+p+p+p+p+p+p+p+p+p+p+*.*.6.o D u+v+K v *.Q >.  . @ ",
"w+. D +.*.p+*+  x+y+v v z+p+p+C p+p+p+&.&.&.&.&.&.&.p+p+p+p+*.A+o =.F.w w B+*.*.*.*.*.*.p+p+p+p+*.*.*.*.*.C+o o D+K K K *.W E+  . @ ",
"@ $ D E+*.p+.   x+y+v v z+p+p+C C C p+r+F+&.F+&.&.r+p+p+p+p+*.G+=.=.L.v v B+p+*.p+*.*.p+p+p+p+*.*.*.*.*.p+6.D o H+v K K *.Q E+  + @ ",
"@ $ D >.*.C *+  m+y+v v +.r+q+I+C q+q+F+F+F+F+r+q+q+p+p+p+p+*.G+D =.J+v v B+C *.*.p+r+r+q+r+r+K+*.*.*.*.p+C+D o u+v K K *.Q >.  . @ ",
"% $ D >.*.C *+  + L+v v L F+F+F+F+F+F+F+F+F+q+C C C C p+p+p+*.s+E D M+v v B+C p+p+q+F+F+F+F+F+&.^.*.*.*.*._+D D N+v K v p+*.O+  . @ ",
"% . o E+*.C m+# . P+v v L F+F+F+F+F+F+F+Q+F+C C C C C p+p+C *.R+E =.i K K x C p+C q+F+F+F+F+&.&.^.*.*.p+p+C+D D D+v K K *.Q >.  . @ ",
"S+.   4 T+U+*+# . V+W W b.W+X+W+X+X+X+Y+Y+U+X+Z+`+`+`+Z+Z+e+T+ @E D .@+@O+Q Z+`+`+`+@@@@@@W+W+@@/ / T+T+T+#@D D '+0 0 W T+( $@# . @ ",
"S+. + v.t.J.+ # + { e+e+u+u.u.t.%@%@&@&@%@&@*@u.u.u.v.v.v.=@)+-@g g @+y.y e+;@u.u.u.%@%@&@t.u.u.u.u.v.v.u.S.g D >@( ( ,@%@u.'@+ . % ",
"S+. . )@t.J.+   + !@~@~@>+u.u.t.&@%@&@&@&@&@*@u.u.u.u.u.{@=@=@-@g g ]@F.y ~@;@u.u.u.&@&@^@t.t.u.u.u.u.u.u.S.D D >@( ( ,@%@u.'@# + @ ",
"% $ . /@C.C.(@  + @+A H+=+_@:@C.<@<@[@[@<@<@}@:@|@1@1@1@1@~+2@3@D g 4@5@_ A 6@:@:@7@<@<@[@1@1@1@:@:@:@:@:@8@D D 9@~ _ 0@6@:@a@# + @ ",
"% . $ #             o o o o o o o D D o o o o o b@o D o o o o o o o     o o o o o o o o o o o o o o o D D o o o o o   o o o D . . @ ",
"% . . o   o o   o o D D D o o o o D D D o D D D D D D D D o o o D o o D D D D D D o o D o o o D D D D D D D o o o D D D D D D . + @ ",
"% . . # # # # + + + # # # # # # # #   o o o     # # # # # # + + # # # # # + # # # + #   o o   # #   #   # # # # # # c@# # #   . . @ ",
"d@. e@[ K J J J J J 2 2 J J J K J J E.j o f@I H I c+J J J J g@K K K K J J J J J J J K *.o o p l [+[+3 J J J J K J J J J J K | 7++ @ ",
"h@. 8.[ K K J J J J 2 J J J J J J J E.a o ! [+[+[+c+J J J J J K J J J J J J J J J J K i@o o j@k@[+}+3 K K J J K J J J J J J [ : + @ ",
"h@. l@[ K K J J J J J J J J 2 2 2 J E.m@  f@}+[+[+-.2 2 J J J J K J J J J J J J J J J *.o o p l [+}+3 J J K K K J J J J J J s 7+. @ ",
"d@$   L P M M *.*.*.Q Q Q M M M Q *.= 5   ].v+v v b+Q Q *.*.*.Q *.Q *.*.*.*.*.*.Q Q Q !.a a n@2 c+K ..M M O K+O P O *.*.*.M  .g o@@ ",
"S+$ o U F+F+I+p@C C C p@I+F+F+F+C C q@    Y.x x x r@p@p@p@p@p@p@p@p@C C p@p@p@C p@p@C e+  5 s@K w w K+Q+Q+Q+Q+Q+Q+t@p@p@C Q+P g . @ ",
"S+$ o ..F+Q+p@p@p@p@C p@p@Q+F+F+C C q@o   '+x x x r@p@p@p@r@r@r@p@p@p@p@p@p@p@p@p@p@p@~@  m@u@c+v@w ^.Q+Q+w@Q+Q+Q+Q+p@p@I+Q+O D x@% ",
"S+. o T Q+Q+t@t@y@z@Q+t@Q+Q+Q+F+A@A@B@a   '+o+w x r@r@r@p@r@r@r@r@r@p@p@p@p@p@p@p@r@y@.@;+5 u@v+o+w q+z@p@z@z@w@w@Q+p@p@p@Q+M g C@D@",
"S+. o ,.Q+Q+Q+Q+Q+w@Q+Q+Q+Q+Q+F+E@F@G@j 5 H@o+w B+0.r@r@r@r@r@r@p@p@p@p@p@p@r@p@r@r@w@.@I@a u@v@B+B+C r@p@r@r@w@w@Q+r@p@p@Q+M D . @ ",
"S+.   ,.Q+Q+Q+Q+w@w@w@Q+Q+Q+Q+F+F@F@G@j   J@o+B+B+0.r@r@r@r@r@r@r@p@p@p@r@p@r@r@r@r@w@K@L@5 s@v@B+x C r@p@p@y@w@w@z@r@p@p@Q+M@o . @ ",
"% . # N@z.O@O@M.M.M.O@O@O@O@O@O@P@Q@R@j   S@T@0 n !.!.U@U@U@( U@U@U@y y U@U@U@U@y U@O@p.;+a V@+@0 0 G.U@X W@W@M.M.M.y y y X@Y@o . @ ",
"S+. . {@J.J.J.J.Z@Z@J.J.t.J.J.J.Z@Z@`@o o  #.#.#.#k.J.Z@Z@Z@Z@+#+#+#Z@Z@Z@Z@Z@Z@Z@Z@J.@#  o ##~@$#$#%#J.J.J.Z@+#Z@Z@Z@Z@Z@Z@t.# . @ ",
"S+. + )@J.J.J.Z@Z@Z@Z@J.J.J.J.Z@Z@Z@`@D o > , .#.#k.J.J.Z@Z@Z@+#+#+#Z@Z@+#Z@Z@Z@Z@Z@J.&#  o *#~@.@.@%#=#J.Z@Z@+#Z@Z@Z@Z@Z@J.t.# . @ ",
"S+. + '@t.J.-#J.J.J.J.J.t.t.t.J.J.J.`@g D > ' ' , 1+t.t.-#J.Z@;#Z@a@Z@k.>#k.J.J.-#-#t.,#  o *#T+~@e+'#*@J.J.k.k.J.J.J.J.J.t.u.  . @ ",
")#. . ^ 7+: 7+: 7+: 7+7+7+7+7+7+7+^ : D D g !#3@!#7+7+^ ^ ^ 7+: : : : 7+: 7+7+7+^ 7+7+: o o D !#~#!#^ ^ 7+^ 7+7+7+7+7+7+7+7+: + . @ ",
")#$ . D o o o o D D D D g g g D D D D D o o D g g D g g g g D D D D D D D D D g g D g D o D D g g g g g g g g g g g g g D g D . . @ ",
")#$ + : D o o   o o D D g D D D D D D D D D D g D g g g D D D D o o D D g D D D g g D g D o D g g g g g g g g g g D D g g g D . . @ ",
"S+$ D ).r@0.{#c@+ 0.0 ]#^#a.a./#/#/#a.a.a./#/#(#/#/#0.0.(#/#0.> I@o _#+@+@:#<#(#0.0./#0./#(#0.0.0.0./#/#/#0.(#0.~ : 7+V@T@p+W : . @ ",
")#$ 7+l+[ [ . c@m+[#[+l |+2 2 2 2 2 2 2 2 3 2 3 3 3 3 3 3 3 | 0+I@o }#l l }+` 3 | | | | 3 | | | | | 3 3 3 | | | p+^ ^ |#l h G ~#+ @ ",
")#$ : 1#[ [ m+c@$ 2#}+l |+2 2 2 2 J J J 2 2 2 2 2 3 3 3 3 3 9 0+3#o 4#5#l }+` | | | | | | 6#6#6#| | 3 3 | 3 3 | p+!#!#j@}+h G ~#+ w+",
"7#$ 8#9#w x m+# 0#v t t J a#t+t+t+a#a#a#t+t+t+B+t+t+B+B+x B+x b#c#o d#e#h |+x x x x x x x x x x x x x x x B+x w n.D.3@p f#2 [ 7++ @ ",
"g#. Y h#Q W m+# 0#n+w w E+p+*.p+*.p+*.*.*.*.*.Q Q Q Q W W W W 7.c#o i#j#J w W W 0 W W W W W W W W W W W W W 0 O+/ -@D.p y+O+z+g . @ ",
"k#. l.l#Q Q m+# m#y+v v z+*.*.p+p+*.*.*.*.Q Q W Q W W W W W 0 n#c#  o#j#2 v W W 0 0 W W W 0 0 0 0 W W ..p#p#..O+/ !+-@p n+O+z+g . @ ",
"S+. D L M M q## r#a#w v z+*.*.p+^.O O O M N Q W W W U U ..s#O+7.z   t#j#J v Q W W W W W W W W 0 ..V U V V V V 0 T+m.m.p n+O+u#g + @ ",
"S+. D  .&.v#$ + r#a#v v z+p+*.p+&.O O O O N S W W W U U p#0 O+>@o   i J J w Q W W W W W W W W 0 p#p#U W W W W 0 e+w#w#p y+O+P+g + @ ",
"S+$ o  .O M@q## m#y+v v z+*.*.p+O &.O O O N S W W V p#p#p#0 O+>@o   i J 2 v Q W W W W W W W W W U U U W W 0 W 0 e+w#w#x#+.W u#g + w+",
")#$ o y#K+z#A#+ m#P+B#C#E+i@i@i@K+K+D#M M T n n n n ......E#>.9.  z 4 J F#G#Q ).W W W W W W n W ....[.n n E#E#E#/ m.m. @E+n u#: . w+",
")#$ # ; ~+2@. + . 1+H#] 0+~+2@2@~+~+~+2@2@; ; ; ; 2@; ; ; ; 4@D.# # w.Y.Y.,+b#2@2@2@2@2@~+2@2@2@2@2@2@2@2@; 4@4@> g g 7+0+4@1+  . I#",
"J#$ $ . . . . . . + + + + + . + + + + + + + + + # + . + + + + + + + + K#K#K#+ . . . . + + + + + + + + + + + + + + # # # + + # . . L#",
"M#J#J#)#)#)#)#)#)#)#)#N#N#)#)#J#)#)#J#J#)#)#)#)#)#)#)#)#)#)#)#N#)#)#)#)#)#)#)#)#)#)#O#)#)#)#)#)#O#S+)#)#)#)#)#S+)#S+S+S+)#)#)#)#O#P#"};
